<svg width="16" height="16" viewBox="0 0 16 16" fill="none" xmlns="http://www.w3.org/2000/svg">
<path opacity="0.2" d="M10.7934 1.33331H5.20671C2.78004 1.33331 1.33337 2.77998 1.33337 5.20665V10.7866C1.33337 13.22 2.78004 14.6666 5.20671 14.6666H10.7867C13.2134 14.6666 14.66 13.22 14.66 10.7933V5.20665C14.6667 2.77998 13.22 1.33331 10.7934 1.33331Z" fill="#7E8299"/>
<path d="M12 7.5H8.5V4C8.5 3.72667 8.27333 3.5 8 3.5C7.72667 3.5 7.5 3.72667 7.5 4V7.5H4C3.72667 7.5 3.5 7.72667 3.5 8C3.5 8.27333 3.72667 8.5 4 8.5H7.5V12C7.5 12.2733 7.72667 12.5 8 12.5C8.27333 12.5 8.5 12.2733 8.5 12V8.5H12C12.2733 8.5 12.5 8.27333 12.5 8C12.5 7.72667 12.2733 7.5 12 7.5Z" fill="#7E8299"/>
</svg>
