<svg width="18" height="18" viewBox="0 0 18 18" fill="none" xmlns="http://www.w3.org/2000/svg">
<path opacity="0.2" d="M5.8575 1.5H12.135C14.8725 1.5 16.5 3.1275 16.5 5.8575V12.135C16.5 14.865 14.8725 16.4925 12.1425 16.4925H5.8575C3.1275 16.5 1.5 14.8725 1.5 12.1425V5.8575C1.5 3.1275 3.1275 1.5 5.8575 1.5Z" fill="#7E8299"/>
<path d="M7.67998 4.6875C7.36498 4.6875 7.11748 4.9425 7.11748 5.25V11.3925L5.86499 10.14C5.64749 9.9225 5.28749 9.9225 5.06999 10.14C4.85249 10.3575 4.85249 10.7175 5.06999 10.935L7.28249 13.1475C7.33499 13.2 7.39499 13.2375 7.46249 13.2675C7.52999 13.2975 7.60498 13.3125 7.67998 13.3125C7.75498 13.3125 7.82248 13.2975 7.89748 13.2675C8.03248 13.2075 8.14499 13.1025 8.20499 12.96C8.23499 12.8925 8.24999 12.8175 8.24999 12.7425V5.25C8.24249 4.9425 7.98748 4.6875 7.67998 4.6875Z" fill="#7E8299"/>
<path d="M12.93 7.065L10.7175 4.8525C10.665 4.8 10.605 4.7625 10.5375 4.7325C10.4025 4.6725 10.245 4.6725 10.11 4.7325C9.97501 4.7925 9.86251 4.8975 9.80251 5.04C9.77251 5.1075 9.75751 5.175 9.75751 5.25V12.75C9.75751 13.0575 10.0125 13.3125 10.32 13.3125C10.6275 13.3125 10.8825 13.0575 10.8825 12.75V6.6075L12.135 7.86C12.2475 7.9725 12.39 8.025 12.5325 8.025C12.675 8.025 12.8175 7.9725 12.93 7.86C13.1475 7.6425 13.1475 7.2825 12.93 7.065Z" fill="#7E8299"/>
</svg>
